<?xml version="1.0" standalone="no"?>
<!DOCTYPE svg PUBLIC "-//W3C//DTD SVG 20010904//EN"
 "http://www.w3.org/TR/2001/REC-SVG-20010904/DTD/svg10.dtd">
<svg version="1.0" xmlns="http://www.w3.org/2000/svg"
 width="300.000000pt" height="300.000000pt" viewBox="0 0 300.000000 300.000000"
 preserveAspectRatio="xMidYMid meet">
<metadata>
Created by potrace 1.14, written by Peter Selinger 2001-2017
</metadata>
<g transform="translate(0.000000,300.000000) scale(0.100000,-0.100000)"
fill="#000000" stroke="none">
<path d="M1344 2119 l-7 -69 -188 0 -189 0 0 -155 0 -155 195 0 195 0 0 -195
0 -195 160 0 160 0 0 190 0 190 115 0 c70 0 115 4 115 10 0 6 -3 10 -7 10 -5
0 -21 12 -38 26 -16 14 -46 38 -65 53 -19 14 -37 28 -40 31 -3 4 -42 36 -87
72 -45 36 -79 69 -75 73 4 5 2 5 -4 2 -6 -3 -27 9 -47 28 -21 19 -40 35 -45
35 -4 0 -28 19 -54 43 -94 86 -86 85 -94 6z"/>
<path d="M680 1070 c0 -57 4 -74 20 -90 24 -24 77 -26 108 -4 19 13 22 24 22
90 0 58 -3 74 -15 74 -11 0 -15 -17 -17 -76 -3 -66 -6 -78 -23 -84 -11 -4 -30
-4 -42 1 -21 8 -23 15 -23 84 0 60 -3 75 -15 75 -12 0 -15 -14 -15 -70z"/>
<path d="M1040 1124 c0 -17 22 -14 28 4 2 7 -3 12 -12 12 -9 0 -16 -7 -16 -16z"/>
<path d="M1120 1121 c0 -11 -8 -22 -17 -24 -17 -4 -17 -5 0 -6 13 -1 17 -10
17 -47 0 -61 14 -84 50 -84 17 0 30 5 30 10 0 6 -6 10 -12 9 -35 -4 -39 1 -36
53 3 46 6 53 28 59 l25 7 -27 1 c-21 1 -28 6 -28 21 0 11 -7 20 -15 20 -8 0
-15 -9 -15 -19z"/>
<path d="M1430 1050 c0 -73 3 -90 15 -90 11 0 15 12 15 46 l0 45 48 -3 47 -3
3 -42 c6 -79 22 -44 22 47 0 53 -4 90 -10 90 -5 0 -10 -18 -10 -40 l0 -40 -50
0 -50 0 0 40 c0 29 -4 40 -15 40 -12 0 -15 -17 -15 -90z"/>
<path d="M2100 1125 c0 -8 5 -15 10 -15 6 0 10 7 10 15 0 8 -4 15 -10 15 -5 0
-10 -7 -10 -15z"/>
<path d="M2180 1121 c0 -11 -8 -22 -17 -24 -17 -4 -17 -5 0 -6 13 -1 17 -10
17 -47 0 -61 14 -84 50 -84 17 0 30 5 30 10 0 6 -6 10 -12 9 -35 -4 -39 1 -36
53 3 46 6 53 28 59 l25 7 -27 1 c-21 1 -28 6 -28 21 0 11 -7 20 -15 20 -8 0
-15 -9 -15 -19z"/>
<path d="M880 1028 c0 -39 4 -68 10 -68 6 0 10 26 10 59 0 61 9 73 53 63 14
-3 17 -14 17 -63 0 -46 3 -59 15 -59 11 0 15 12 15 51 0 76 -11 89 -70 87
l-50 -2 0 -68z"/>
<path d="M1040 1030 c0 -56 3 -70 15 -70 12 0 15 14 15 70 0 56 -3 70 -15 70
-12 0 -15 -14 -15 -70z"/>
<path d="M1215 1083 c43 -109 46 -124 36 -153 -7 -22 -7 -30 2 -30 7 0 27 42
45 93 35 101 37 107 22 107 -5 0 -17 -25 -25 -55 -9 -30 -18 -55 -20 -55 -2 0
-12 25 -21 55 -11 33 -23 55 -32 55 -9 0 -12 -6 -7 -17z"/>
<path d="M1642 1088 c-7 -7 -12 -33 -12 -58 0 -54 13 -70 56 -70 57 0 64 7 64
64 0 29 -5 57 -12 64 -16 16 -80 16 -96 0z m79 -8 c5 0 9 -22 9 -49 0 -40 -3
-50 -20 -54 -43 -11 -60 2 -60 49 0 44 20 69 48 59 8 -3 18 -5 23 -5z"/>
<path d="M1803 1093 c-7 -2 -13 -18 -13 -34 0 -24 4 -29 24 -29 37 0 56 -10
56 -31 0 -19 -12 -23 -57 -19 -13 1 -23 -3 -23 -9 0 -17 77 -13 94 5 19 18 19
20 6 45 -8 13 -21 19 -45 19 -28 0 -35 4 -35 20 0 20 12 24 58 20 12 -1 22 3
22 9 0 11 -64 14 -87 4z"/>
<path d="M1930 999 c0 -81 3 -99 15 -99 10 0 15 10 15 33 0 32 1 33 33 29 46
-5 67 18 67 73 0 53 -16 65 -84 63 l-46 -1 0 -98z m100 31 c0 -50 -12 -61 -52
-52 -14 3 -18 14 -18 52 0 38 4 49 18 52 40 9 52 -2 52 -52z"/>
<path d="M2100 1030 c0 -40 4 -70 10 -70 6 0 10 30 10 70 0 40 -4 70 -10 70
-6 0 -10 -30 -10 -70z"/>
<path d="M2290 1089 c0 -6 10 -10 23 -9 46 4 59 0 55 -17 -2 -13 -16 -20 -43
-23 -32 -4 -41 -9 -43 -28 -6 -37 15 -52 69 -50 l49 1 0 49 c0 72 -12 88 -65
88 -25 0 -45 -5 -45 -11z m80 -83 c0 -28 -24 -40 -51 -26 -36 20 -22 50 23 50
23 0 28 -4 28 -24z"/>
<path d="M324 755 c5 -11 11 -28 13 -37 7 -23 23 -23 23 0 0 10 5 23 12 30 6
6 8 15 4 19 -4 4 -11 1 -16 -7 -7 -12 -11 -12 -26 1 -16 13 -17 12 -10 -6z"/>
<path d="M432 758 c-16 -16 -15 -33 3 -48 21 -18 55 -3 55 25 0 32 -35 46 -58
23z m38 -23 c0 -8 -7 -15 -15 -15 -8 0 -15 7 -15 15 0 8 7 15 15 15 8 0 15 -7
15 -15z"/>
<path d="M542 738 c2 -28 7 -33 28 -33 21 0 26 5 28 33 2 18 -1 32 -7 32 -6 0
-11 -11 -11 -25 0 -14 -4 -25 -10 -25 -5 0 -10 11 -10 25 0 14 -5 25 -11 25
-6 0 -9 -14 -7 -32z"/>
<path d="M657 764 c-10 -11 -9 -64 2 -64 5 0 12 6 15 13 5 10 7 10 12 0 11
-24 22 -13 20 20 -1 24 -7 33 -22 35 -11 2 -23 0 -27 -4z"/>
<path d="M820 738 c0 -21 5 -38 10 -38 6 0 10 7 10 15 0 8 5 15 10 15 6 0 10
-7 10 -15 0 -8 5 -15 10 -15 6 0 10 16 10 35 0 37 -13 47 -24 18 -6 -14 -8
-14 -21 3 -13 18 -14 16 -15 -18z"/>
<path d="M930 735 c0 -31 3 -35 27 -35 26 0 26 1 7 15 -12 9 -14 14 -6 15 7 0
10 5 6 11 -3 6 0 15 7 20 10 6 6 9 -13 9 -25 0 -28 -3 -28 -35z"/>
<path d="M1041 751 c-16 -29 -15 -56 2 -42 10 8 17 7 25 -1 18 -18 25 -3 15
28 -12 35 -29 41 -42 15z"/>
<path d="M1140 736 c0 -31 3 -36 23 -35 12 0 16 3 10 6 -7 2 -13 15 -13 28 0
13 -4 27 -10 30 -6 4 -10 -8 -10 -29z"/>
<path d="M1238 758 c7 -7 12 -22 12 -35 0 -13 5 -23 10 -23 6 0 10 13 10 29 0
16 6 32 13 34 6 3 -4 6 -22 6 -27 1 -32 -2 -23 -11z"/>
<path d="M1330 735 c0 -19 5 -35 10 -35 6 0 10 7 10 15 0 8 7 15 15 15 8 0 15
-7 15 -15 0 -8 5 -15 10 -15 11 0 14 53 3 63 -3 4 -12 -1 -19 -11 -12 -16 -13
-16 -19 1 -12 29 -25 19 -25 -18z"/>
<path d="M1569 754 c-17 -21 0 -49 32 -49 18 0 25 6 27 24 6 38 -34 55 -59 25z
m41 -19 c0 -8 -7 -15 -15 -15 -8 0 -15 7 -15 15 0 8 7 15 15 15 8 0 15 -7 15
-15z"/>
<path d="M1680 746 c0 -28 24 -51 45 -42 10 3 14 17 14 38 -2 30 -2 31 -6 6
-5 -35 -33 -37 -33 -3 0 14 -4 25 -10 25 -5 0 -10 -11 -10 -24z"/>
<path d="M1797 764 c-10 -10 -9 -52 2 -58 5 -4 12 0 15 6 5 10 7 10 12 1 11
-24 22 -13 21 20 -2 24 -7 33 -22 35 -12 2 -24 0 -28 -4z"/>
<path d="M1960 735 c0 -19 2 -35 4 -35 3 0 16 11 30 23 27 25 20 47 -16 47
-14 0 -18 -8 -18 -35z"/>
<path d="M2067 764 c-10 -11 -9 -64 2 -64 5 0 12 6 15 13 5 10 7 10 12 0 11
-24 22 -13 20 20 -1 24 -7 33 -22 35 -11 2 -23 0 -27 -4z"/>
<path d="M2170 736 c0 -20 5 -36 10 -36 6 0 10 13 10 29 0 17 -4 33 -10 36 -6
4 -10 -8 -10 -29z"/>
<path d="M2241 751 c-13 -24 8 -55 34 -50 28 6 42 34 26 53 -18 22 -48 20 -60
-3z m49 -16 c0 -8 -9 -15 -20 -15 -11 0 -20 7 -20 15 0 8 9 15 20 15 11 0 20
-7 20 -15z"/>
<path d="M2357 764 c-10 -10 -9 -52 2 -58 5 -4 12 0 15 6 5 10 7 10 12 1 11
-24 22 -13 21 20 -2 24 -7 33 -22 35 -12 2 -24 0 -28 -4z"/>
<path d="M2460 735 c0 -19 5 -35 10 -35 6 0 10 16 10 35 0 19 -4 35 -10 35 -5
0 -10 -16 -10 -35z"/>
<path d="M2538 758 c7 -7 12 -22 12 -35 0 -13 5 -23 10 -23 6 0 10 13 10 29 0
16 6 32 13 34 6 3 -4 6 -22 6 -27 1 -32 -2 -23 -11z"/>
<path d="M2638 735 c17 -35 32 -45 32 -22 0 6 3 23 7 37 6 22 5 23 -9 12 -11
-9 -18 -10 -23 -2 -16 26 -23 6 -7 -25z"/>
<path d="M1440 704 c0 -8 5 -12 10 -9 6 3 10 10 10 16 0 5 -4 9 -10 9 -5 0
-10 -7 -10 -16z"/>
</g>
</svg>
